# xmcd
#
# Track frame offsets:
#	150
#	23250
#	40355
#	53620
#	71230
#	88313
#	103050
#	116930
#	130798
#	146513
#	165225
#	182025
#	199180
#	216345
#	232008
#	248895
#	272080
#	293580
#	313043
#
# Disc length: 4435 seconds
#
# Revision: 2
# Processed by: cddbd v1.5.2PL0 Copyright (c) Steve Scherf et al.
# Submitted via: EasyCDDAExtractor 16.0.9.1
#
DISCID=1b115113
DTITLE=Сборник - Вячеслав Добрынин. Золотой шлягер 80-х
DYEAR=1995
DGENRE=Pop
TTITLE0=Земляне - Прости, Земля
TTITLE1=Красные маки - Если у тебя своя дорога
TTITLE2=Тынис Мяги - Вот возьму и уеду
TTITLE3=Олег Кацура - Большая Медведица
TTITLE4=Сергей Мазаев - Земля-наш дом
TTITLE5=Михаил Боярский - Рыжий конь
TTITLE6=Сергей Беликов - Живи, родник 
TTITLE7=Михаил Боярский - Старый альбом
TTITLE8=Ольга Зарубина - Ты приехал
TTITLE9=Веселые ребята - Чашка чая
TTITLE10=Ольга Зарубина - На теплоходе музыка играет
TTITLE11=Ярослав Евдокимов - Колодец
TTITLE12=Ион Суручану - Незабудка
TTITLE13=Валентина Легкоступова - Капля в море
TTITLE14=Веселые ребята - Бологое
TTITLE15=Лев Лещенко - Холода, холода
TTITLE16=Валентина Легкоступова - Ягода малина
TTITLE17=Веселые ребята - Не волнуйтесь, тетя
TTITLE18=Вячеслав Добрынин - Синий туман
EXTD=
EXTT0=
EXTT1=
EXTT2=
EXTT3=
EXTT4=
EXTT5=
EXTT6=
EXTT7=
EXTT8=
EXTT9=
EXTT10=
EXTT11=
EXTT12=
EXTT13=
EXTT14=
EXTT15=
EXTT16=
EXTT17=
EXTT18=
PLAYORDER=
